<svg width="160" height="48" viewBox="0 0 160 48" fill="none" xmlns="http://www.w3.org/2000/svg">
  <rect width="160" height="48" rx="12" fill="url(#paint0_linear)" fill-opacity="0.25"/>
  <path d="M31.704 31.2C27.912 31.2 25.008 28.632 25.008 24.192C25.008 19.752 27.912 17.184 31.704 17.184C34.056 17.184 35.88 18 36.96 19.488L34.68 21.048C34.008 20.184 33 19.752 31.848 19.752C29.448 19.752 27.912 21.528 27.912 24.192C27.912 26.856 29.448 28.632 31.848 28.632C33 28.632 34.008 28.2 34.68 27.336L36.96 28.896C35.88 30.384 34.056 31.2 31.704 31.2Z" fill="white"/>
  <path d="M45.6726 31.2C41.8806 31.2 38.9766 28.632 38.9766 24.192C38.9766 19.752 41.8806 17.184 45.6726 17.184C48.0246 17.184 49.8486 18 50.9286 19.488L48.6486 21.048C47.9766 20.184 46.9686 19.752 45.8166 19.752C43.4166 19.752 41.8806 21.528 41.8806 24.192C41.8806 26.856 43.4166 28.632 45.8166 28.632C46.9686 28.632 47.9766 28.2 48.6486 27.336L50.9286 28.896C49.8486 30.384 48.0246 31.2 45.6726 31.2Z" fill="white"/>
  <path d="M63.1832 21.672C63.1832 19.464 61.7192 18.456 59.6072 18.456C57.4952 18.456 56.0312 19.464 56.0312 21.672V31H53.1992V21.576C53.1992 17.976 55.9352 16 59.6072 16C63.2792 16 66.0152 17.976 66.0152 21.576V31H63.1832V21.672Z" fill="white"/>
  <path d="M74.9675 31L69.6395 16.24H72.6635L76.3595 27.464L80.0555 16.24H83.0555L77.7515 31H74.9675Z" fill="white"/>
  <path d="M90.9914 31.2C87.1994 31.2 84.2954 28.632 84.2954 24.192C84.2954 19.752 87.1994 17.184 90.9914 17.184C93.3434 17.184 95.1674 18 96.2474 19.488L93.9674 21.048C93.2954 20.184 92.2874 19.752 91.1354 19.752C88.7354 19.752 87.1994 21.528 87.1994 24.192C87.1994 26.856 88.7354 28.632 91.1354 28.632C92.2874 28.632 93.2954 28.2 93.9674 27.336L96.2474 28.896C95.1674 30.384 93.3434 31.2 90.9914 31.2Z" fill="white"/>
  <path d="M109.021 25.704V16.24H111.853V31H108.541L102.037 21.576V31H99.2046V16.24H102.613L109.021 25.704Z" fill="white"/>
  <path d="M123.8 18.456H118.708V22.776H123.236V25.344H118.708V31H115.876V16.24H123.8V18.456Z" fill="white"/>
  <path d="M135.066 31.2C131.274 31.2 128.37 28.632 128.37 24.192C128.37 19.752 131.274 17.184 135.066 17.184C137.418 17.184 139.242 18 140.322 19.488L138.042 21.048C137.37 20.184 136.362 19.752 135.21 19.752C132.81 19.752 131.274 21.528 131.274 24.192C131.274 26.856 132.81 28.632 135.21 28.632C136.362 28.632 137.37 28.2 138.042 27.336L140.322 28.896C139.242 30.384 137.418 31.2 135.066 31.2Z" fill="white"/>
  <defs>
    <linearGradient id="paint0_linear" x1="8" y1="8" x2="152" y2="40" gradientUnits="userSpaceOnUse">
      <stop stop-color="#14B8A6"/>
      <stop offset="1" stop-color="#0EA5E9"/>
    </linearGradient>
  </defs>
</svg>
